<svg id="visual" viewBox="0 0 900 600" width="900" height="600" xmlns="http://www.w3.org/2000/svg" xmlns:xlink="http://www.w3.org/1999/xlink" version="1.1"><rect x="0" y="0" width="900" height="600" fill="#001220"></rect><defs><linearGradient id="grad1_0" x1="33.3%" y1="0%" x2="100%" y2="100%"><stop offset="20%" stop-color="#001220" stop-opacity="1"></stop><stop offset="80%" stop-color="#001220" stop-opacity="1"></stop></linearGradient></defs><defs><linearGradient id="grad2_0" x1="0%" y1="0%" x2="66.7%" y2="100%"><stop offset="20%" stop-color="#001220" stop-opacity="1"></stop><stop offset="80%" stop-color="#001220" stop-opacity="1"></stop></linearGradient></defs><g transform="translate(900, 0)"><path d="M0 486.7C-56.9 468.5 -113.7 450.2 -178.7 431.5C-243.7 412.7 -316.8 393.5 -344.2 344.2C-371.6 294.9 -353.4 215.5 -369.6 153.1C-385.7 90.7 -436.2 45.3 -486.7 0L0 0Z" fill="#FBAE3C"></path></g><g transform="translate(0, 600)"><path d="M0 -486.7C66 -483.3 132.1 -479.8 186.3 -449.7C240.5 -419.6 282.8 -363 309.7 -309.7C336.6 -256.4 348.2 -206.4 375.1 -155.4C402 -104.3 444.4 -52.2 486.7 0L0 0Z" fill="#FBAE3C"></path></g></svg>