<svg id="visual" viewBox="0 0 900 600" width="900" height="600" xmlns="http://www.w3.org/2000/svg" xmlns:xlink="http://www.w3.org/1999/xlink" version="1.1"><rect x="0" y="0" width="900" height="600" fill="#001220"></rect><path d="M0 442L21.5 434.5C43 427 86 412 128.8 400.3C171.7 388.7 214.3 380.3 257.2 382.5C300 384.7 343 397.3 385.8 408.5C428.7 419.7 471.3 429.3 514.2 430.3C557 431.3 600 423.7 642.8 415.8C685.7 408 728.3 400 771.2 401.5C814 403 857 414 878.5 419.5L900 425L900 601L878.5 601C857 601 814 601 771.2 601C728.3 601 685.7 601 642.8 601C600 601 557 601 514.2 601C471.3 601 428.7 601 385.8 601C343 601 300 601 257.2 601C214.3 601 171.7 601 128.8 601C86 601 43 601 21.5 601L0 601Z" fill="#fa7268"></path><path d="M0 428L21.5 429C43 430 86 432 128.8 438.3C171.7 444.7 214.3 455.3 257.2 453.3C300 451.3 343 436.7 385.8 429.2C428.7 421.7 471.3 421.3 514.2 420.5C557 419.7 600 418.3 642.8 420.7C685.7 423 728.3 429 771.2 439.3C814 449.7 857 464.3 878.5 471.7L900 479L900 601L878.5 601C857 601 814 601 771.2 601C728.3 601 685.7 601 642.8 601C600 601 557 601 514.2 601C471.3 601 428.7 601 385.8 601C343 601 300 601 257.2 601C214.3 601 171.7 601 128.8 601C86 601 43 601 21.5 601L0 601Z" fill="#ef5f67"></path><path d="M0 497L21.5 487.2C43 477.3 86 457.7 128.8 450.5C171.7 443.3 214.3 448.7 257.2 458.3C300 468 343 482 385.8 487.8C428.7 493.7 471.3 491.3 514.2 491.2C557 491 600 493 642.8 485.2C685.7 477.3 728.3 459.7 771.2 459.2C814 458.7 857 475.3 878.5 483.7L900 492L900 601L878.5 601C857 601 814 601 771.2 601C728.3 601 685.7 601 642.8 601C600 601 557 601 514.2 601C471.3 601 428.7 601 385.8 601C343 601 300 601 257.2 601C214.3 601 171.7 601 128.8 601C86 601 43 601 21.5 601L0 601Z" fill="#e34c67"></path><path d="M0 493L21.5 491C43 489 86 485 128.8 486.3C171.7 487.7 214.3 494.3 257.2 498C300 501.7 343 502.3 385.8 504.8C428.7 507.3 471.3 511.7 514.2 509.8C557 508 600 500 642.8 495.8C685.7 491.7 728.3 491.3 771.2 495.8C814 500.3 857 509.7 878.5 514.3L900 519L900 601L878.5 601C857 601 814 601 771.2 601C728.3 601 685.7 601 642.8 601C600 601 557 601 514.2 601C471.3 601 428.7 601 385.8 601C343 601 300 601 257.2 601C214.3 601 171.7 601 128.8 601C86 601 43 601 21.5 601L0 601Z" fill="#d53867"></path><path d="M0 532L21.5 535.5C43 539 86 546 128.8 550C171.7 554 214.3 555 257.2 556.5C300 558 343 560 385.8 556.7C428.7 553.3 471.3 544.7 514.2 543.2C557 541.7 600 547.3 642.8 553.2C685.7 559 728.3 565 771.2 560.5C814 556 857 541 878.5 533.5L900 526L900 601L878.5 601C857 601 814 601 771.2 601C728.3 601 685.7 601 642.8 601C600 601 557 601 514.2 601C471.3 601 428.7 601 385.8 601C343 601 300 601 257.2 601C214.3 601 171.7 601 128.8 601C86 601 43 601 21.5 601L0 601Z" fill="#c62368"></path></svg>