<svg id="visual" viewBox="0 0 900 600" width="900" height="600" xmlns="http://www.w3.org/2000/svg" xmlns:xlink="http://www.w3.org/1999/xlink" version="1.1"><g stroke-width="1" stroke-linejoin="bevel"><path d="M392 273L373 232L282 308Z" fill="#205a7a" stroke="#205a7a"></path><path d="M373 232L328 184L282 308Z" fill="#112e42" stroke="#112e42"></path><path d="M282 308L283 372L392 273Z" fill="#19435d" stroke="#19435d"></path><path d="M328 184L233 212L282 308Z" fill="#19435d" stroke="#19435d"></path><path d="M282 308L222 326L283 372Z" fill="#0c2435" stroke="#0c2435"></path><path d="M233 212L222 326L282 308Z" fill="#00101c" stroke="#00101c"></path><path d="M283 372L411 398L392 273Z" fill="#081a28" stroke="#081a28"></path><path d="M373 232L396 102L328 184Z" fill="#00101c" stroke="#00101c"></path><path d="M328 184L215 68L233 212Z" fill="#1d4e6b" stroke="#1d4e6b"></path><path d="M499 180L396 102L373 232Z" fill="#297ea6" stroke="#297ea6"></path><path d="M499 180L373 232L392 273Z" fill="#19435d" stroke="#19435d"></path><path d="M523 306L499 180L392 273Z" fill="#297ea6" stroke="#297ea6"></path><path d="M504 373L523 306L392 273Z" fill="#112e42" stroke="#112e42"></path><path d="M222 326L194 411L283 372Z" fill="#277297" stroke="#277297"></path><path d="M283 372L382 483L411 398Z" fill="#0c2435" stroke="#0c2435"></path><path d="M71 318L194 411L222 326Z" fill="#081a28" stroke="#081a28"></path><path d="M411 398L504 373L392 273Z" fill="#246688" stroke="#246688"></path><path d="M194 411L264 475L283 372Z" fill="#205a7a" stroke="#205a7a"></path><path d="M411 398L524 503L504 373Z" fill="#0c2435" stroke="#0c2435"></path><path d="M264 475L382 483L283 372Z" fill="#0c2435" stroke="#0c2435"></path><path d="M396 102L301 63L328 184Z" fill="#081a28" stroke="#081a28"></path><path d="M301 63L215 68L328 184Z" fill="#081a28" stroke="#081a28"></path><path d="M233 212L71 318L222 326Z" fill="#112e42" stroke="#112e42"></path><path d="M523 306L561 184L499 180Z" fill="#0c2435" stroke="#0c2435"></path><path d="M499 180L491 85L396 102Z" fill="#246688" stroke="#246688"></path><path d="M630 337L561 184L523 306Z" fill="#277297" stroke="#277297"></path><path d="M194 411L229 501L264 475Z" fill="#205a7a" stroke="#205a7a"></path><path d="M277 600L378 600L382 483Z" fill="#19435d" stroke="#19435d"></path><path d="M561 184L491 85L499 180Z" fill="#297ea6" stroke="#297ea6"></path><path d="M396 102L379 0L301 63Z" fill="#00101c" stroke="#00101c"></path><path d="M524 503L570 389L504 373Z" fill="#297ea6" stroke="#297ea6"></path><path d="M504 373L570 389L523 306Z" fill="#205a7a" stroke="#205a7a"></path><path d="M67 175L71 318L233 212Z" fill="#246688" stroke="#246688"></path><path d="M194 411L108 520L229 501Z" fill="#277297" stroke="#277297"></path><path d="M461 0L379 0L396 102Z" fill="#00101c" stroke="#00101c"></path><path d="M301 63L280 0L215 68Z" fill="#0c2435" stroke="#0c2435"></path><path d="M379 0L280 0L301 63Z" fill="#15384f" stroke="#15384f"></path><path d="M193 0L124 87L215 68Z" fill="#00101c" stroke="#00101c"></path><path d="M215 68L124 87L233 212Z" fill="#246688" stroke="#246688"></path><path d="M124 87L67 175L233 212Z" fill="#00101c" stroke="#00101c"></path><path d="M71 318L81 422L194 411Z" fill="#297ea6" stroke="#297ea6"></path><path d="M382 483L524 503L411 398Z" fill="#277297" stroke="#277297"></path><path d="M478 600L524 503L382 483Z" fill="#081a28" stroke="#081a28"></path><path d="M679 424L630 337L570 389Z" fill="#112e42" stroke="#112e42"></path><path d="M570 389L630 337L523 306Z" fill="#19435d" stroke="#19435d"></path><path d="M491 85L461 0L396 102Z" fill="#19435d" stroke="#19435d"></path><path d="M587 0L461 0L491 85Z" fill="#1d4e6b" stroke="#1d4e6b"></path><path d="M280 0L193 0L215 68Z" fill="#297ea6" stroke="#297ea6"></path><path d="M277 600L264 475L229 501Z" fill="#00101c" stroke="#00101c"></path><path d="M277 600L382 483L264 475Z" fill="#277297" stroke="#277297"></path><path d="M219 600L277 600L229 501Z" fill="#112e42" stroke="#112e42"></path><path d="M81 422L108 520L194 411Z" fill="#15384f" stroke="#15384f"></path><path d="M71 318L0 405L81 422Z" fill="#19435d" stroke="#19435d"></path><path d="M81 422L0 500L108 520Z" fill="#205a7a" stroke="#205a7a"></path><path d="M0 195L0 327L71 318Z" fill="#081a28" stroke="#081a28"></path><path d="M0 110L0 195L67 175Z" fill="#112e42" stroke="#112e42"></path><path d="M67 175L0 195L71 318Z" fill="#19435d" stroke="#19435d"></path><path d="M0 110L67 175L124 87Z" fill="#297ea6" stroke="#297ea6"></path><path d="M131 600L219 600L229 501Z" fill="#00101c" stroke="#00101c"></path><path d="M674 106L612 72L561 184Z" fill="#15384f" stroke="#15384f"></path><path d="M561 184L612 72L491 85Z" fill="#19435d" stroke="#19435d"></path><path d="M193 0L109 0L124 87Z" fill="#246688" stroke="#246688"></path><path d="M378 600L478 600L382 483Z" fill="#205a7a" stroke="#205a7a"></path><path d="M524 503L601 531L570 389Z" fill="#19435d" stroke="#19435d"></path><path d="M0 327L0 405L71 318Z" fill="#205a7a" stroke="#205a7a"></path><path d="M579 600L601 531L524 503Z" fill="#00101c" stroke="#00101c"></path><path d="M0 0L0 110L124 87Z" fill="#081a28" stroke="#081a28"></path><path d="M612 72L587 0L491 85Z" fill="#112e42" stroke="#112e42"></path><path d="M601 531L679 424L570 389Z" fill="#1d4e6b" stroke="#1d4e6b"></path><path d="M723 215L674 106L561 184Z" fill="#00101c" stroke="#00101c"></path><path d="M723 215L561 184L630 337Z" fill="#0c2435" stroke="#0c2435"></path><path d="M612 72L725 0L587 0Z" fill="#205a7a" stroke="#205a7a"></path><path d="M0 600L131 600L108 520Z" fill="#00101c" stroke="#00101c"></path><path d="M108 520L131 600L229 501Z" fill="#00101c" stroke="#00101c"></path><path d="M733 307L723 215L630 337Z" fill="#0c2435" stroke="#0c2435"></path><path d="M0 405L0 500L81 422Z" fill="#246688" stroke="#246688"></path><path d="M679 424L733 307L630 337Z" fill="#0c2435" stroke="#0c2435"></path><path d="M601 531L715 495L679 424Z" fill="#297ea6" stroke="#297ea6"></path><path d="M478 600L579 600L524 503Z" fill="#00101c" stroke="#00101c"></path><path d="M109 0L0 0L124 87Z" fill="#297ea6" stroke="#297ea6"></path><path d="M733 307L760 200L723 215Z" fill="#15384f" stroke="#15384f"></path><path d="M723 215L760 200L674 106Z" fill="#19435d" stroke="#19435d"></path><path d="M674 106L725 0L612 72Z" fill="#246688" stroke="#246688"></path><path d="M693 600L715 495L601 531Z" fill="#112e42" stroke="#112e42"></path><path d="M679 424L776 362L733 307Z" fill="#0c2435" stroke="#0c2435"></path><path d="M733 307L816 286L760 200Z" fill="#1d4e6b" stroke="#1d4e6b"></path><path d="M715 495L776 362L679 424Z" fill="#00101c" stroke="#00101c"></path><path d="M0 500L0 600L108 520Z" fill="#15384f" stroke="#15384f"></path><path d="M832 111L725 0L674 106Z" fill="#1d4e6b" stroke="#1d4e6b"></path><path d="M776 362L816 286L733 307Z" fill="#112e42" stroke="#112e42"></path><path d="M760 200L832 111L674 106Z" fill="#1d4e6b" stroke="#1d4e6b"></path><path d="M900 283L816 286L900 367Z" fill="#246688" stroke="#246688"></path><path d="M579 600L693 600L601 531Z" fill="#081a28" stroke="#081a28"></path><path d="M715 495L784 516L776 362Z" fill="#277297" stroke="#277297"></path><path d="M693 600L784 516L715 495Z" fill="#246688" stroke="#246688"></path><path d="M900 166L832 111L760 200Z" fill="#112e42" stroke="#112e42"></path><path d="M832 111L798 0L725 0Z" fill="#246688" stroke="#246688"></path><path d="M900 367L816 286L776 362Z" fill="#297ea6" stroke="#297ea6"></path><path d="M816 286L900 166L760 200Z" fill="#19435d" stroke="#19435d"></path><path d="M832 111L900 0L798 0Z" fill="#15384f" stroke="#15384f"></path><path d="M900 461L900 367L776 362Z" fill="#246688" stroke="#246688"></path><path d="M900 283L900 166L816 286Z" fill="#081a28" stroke="#081a28"></path><path d="M900 166L900 127L832 111Z" fill="#00101c" stroke="#00101c"></path><path d="M693 600L833 600L784 516Z" fill="#00101c" stroke="#00101c"></path><path d="M784 516L900 461L776 362Z" fill="#277297" stroke="#277297"></path><path d="M833 600L900 461L784 516Z" fill="#205a7a" stroke="#205a7a"></path><path d="M900 127L900 0L832 111Z" fill="#1d4e6b" stroke="#1d4e6b"></path><path d="M833 600L900 600L900 461Z" fill="#297ea6" stroke="#297ea6"></path></g></svg>