<svg id="visual" viewBox="0 0 900 600" width="900" height="600" xmlns="http://www.w3.org/2000/svg" xmlns:xlink="http://www.w3.org/1999/xlink" version="1.1"><path d="M0 127L82 127L82 49L164 49L164 139L245 139L245 61L327 61L327 61L409 61L409 91L491 91L491 133L573 133L573 121L655 121L655 103L736 103L736 139L818 139L818 115L900 115L900 157L900 0L900 0L818 0L818 0L736 0L736 0L655 0L655 0L573 0L573 0L491 0L491 0L409 0L409 0L327 0L327 0L245 0L245 0L164 0L164 0L82 0L82 0L0 0Z" fill="#fa7268"></path><path d="M0 205L82 205L82 97L164 97L164 199L245 199L245 127L327 127L327 157L409 157L409 133L491 133L491 217L573 217L573 169L655 169L655 151L736 151L736 235L818 235L818 157L900 157L900 235L900 155L900 113L818 113L818 137L736 137L736 101L655 101L655 119L573 119L573 131L491 131L491 89L409 89L409 59L327 59L327 59L245 59L245 137L164 137L164 47L82 47L82 125L0 125Z" fill="#ea5e66"></path><path d="M0 289L82 289L82 223L164 223L164 277L245 277L245 247L327 247L327 241L409 241L409 265L491 265L491 283L573 283L573 295L655 295L655 211L736 211L736 349L818 349L818 289L900 289L900 307L900 233L900 155L818 155L818 233L736 233L736 149L655 149L655 167L573 167L573 215L491 215L491 131L409 131L409 155L327 155L327 125L245 125L245 197L164 197L164 95L82 95L82 203L0 203Z" fill="#d84a64"></path><path d="M0 373L82 373L82 475L164 475L164 403L245 403L245 409L327 409L327 391L409 391L409 391L491 391L491 475L573 475L573 511L655 511L655 355L736 355L736 517L818 517L818 451L900 451L900 469L900 305L900 287L818 287L818 347L736 347L736 209L655 209L655 293L573 293L573 281L491 281L491 263L409 263L409 239L327 239L327 245L245 245L245 275L164 275L164 221L82 221L82 287L0 287Z" fill="#c53762"></path><path d="M0 601L82 601L82 601L164 601L164 601L245 601L245 601L327 601L327 601L409 601L409 601L491 601L491 601L573 601L573 601L655 601L655 601L736 601L736 601L818 601L818 601L900 601L900 601L900 467L900 449L818 449L818 515L736 515L736 353L655 353L655 509L573 509L573 473L491 473L491 389L409 389L409 389L327 389L327 407L245 407L245 401L164 401L164 473L82 473L82 371L0 371Z" fill="#b0235f"></path></svg>